<?xml version="1.0" encoding="UTF-8"?>
<svg version="1.1" xmlns="http://www.w3.org/2000/svg" width="512" height="512">
<path d="M0 0 C0.86850586 0.00418945 1.73701172 0.00837891 2.63183594 0.01269531 C14.74593612 0.22286981 27.96559404 2.01193359 36.80029297 11.12280273 C40.302332 16.193805 41.51983044 22.54986412 43.125 28.4375 C43.55067233 29.9488279 43.97728576 31.45989102 44.40478516 32.97070312 C45.74355137 37.74172232 47.03165032 42.52566251 48.3125 47.3125 C48.52255676 48.091698 48.73261353 48.870896 48.94903564 49.67370605 C55.6489966 74.54442879 61.53095212 99.44326517 62.3125 125.3125 C62.91384766 125.40225098 63.51519531 125.49200195 64.13476562 125.58447266 C116.5357123 133.5357123 116.5357123 133.5357123 125.3125 142.3125 C125.8710492 145.89245758 125.82188979 149.5065786 125.875 153.125 C125.92462891 154.12337891 125.97425781 155.12175781 126.02539062 156.15039062 C126.12526896 163.28931371 126.12526896 163.28931371 123.91870117 166.06713867 C120.43863166 168.68806154 116.75573307 170.08597799 112.5 171 C111.46488281 171.226875 110.42976562 171.45375 109.36328125 171.6875 C108.35652344 171.89375 107.34976563 172.1 106.3125 172.3125 C105.43980469 172.51875 104.56710937 172.725 103.66796875 172.9375 C97.8232519 174.2629161 92.29411535 174.54158314 86.3125 174.3125 C86.68120885 176.60868682 87.08337618 178.89952169 87.5 181.1875 C87.72042969 182.46367187 87.94085938 183.73984375 88.16796875 185.0546875 C88.94429113 188.48191838 88.94429113 188.48191838 91.7265625 189.49609375 C93.00660156 189.90021484 93.00660156 189.90021484 94.3125 190.3125 C101.13161158 197.87047694 103.40509258 207.32572841 103.3125 217.3125 C102.01728363 226.02895614 98.62446339 234.19622608 95.3125 242.3125 C95.869375 242.87195313 96.42625 243.43140625 97 244.0078125 C115.13715933 263.06408464 118.15842988 284.99143691 118.6027832 310.32763672 C118.85900859 324.8828731 119.49979247 338.99407 122.3125 353.3125 C130.7152653 397.54472039 130.7152653 397.54472039 121.3125 414.3125 C116.34714592 421.2712444 110.64932173 426.01098405 102.3125 428.3125 C98.55078125 428.54296875 98.55078125 428.54296875 94.625 428.5 C93.32175781 428.49355469 92.01851562 428.48710937 90.67578125 428.48046875 C87.3125 428.3125 87.3125 428.3125 84.3125 427.3125 C84.33570313 427.88613281 84.35890625 428.45976562 84.3828125 429.05078125 C84.58466309 438.55217703 83.40591553 447.8915537 82.3125 457.3125 C84.045 457.49039063 84.045 457.49039063 85.8125 457.671875 C90.13696307 458.21623963 94.16403842 459.24713413 98.3125 460.5625 C99.00802979 460.78139893 99.70355957 461.00029785 100.42016602 461.22583008 C105.61425178 462.93163235 109.92081598 464.99633043 114.3125 468.3125 C115.75680855 471.20111709 115.68938506 473.10897701 115.3125 476.3125 C108.59589331 486.14753122 92.8030435 487.9891384 81.95556641 490.10498047 C62.13572325 493.83581539 42.25382692 494.80433978 22.12402344 494.70361328 C18.31408927 494.68750672 14.50521536 494.70359207 10.6953125 494.72265625 C-58.33564102 494.78314716 -58.33564102 494.78314716 -76.9375 478.875 C-78.6875 476.3125 -78.6875 476.3125 -79.3125 473.3125 C-78.48100715 469.3213343 -76.98369756 467.51232284 -73.6875 465.3125 C-63.13232498 459.32121738 -47.7957401 455.3125 -35.6875 455.3125 C-35.8525 454.343125 -36.0175 453.37375 -36.1875 452.375 C-36.82146273 448.01762237 -36.7771672 443.70619296 -36.6875 439.3125 C-37.26048828 439.48088379 -37.83347656 439.64926758 -38.42382812 439.82275391 C-42.3533221 440.67290112 -46.21250165 440.05836798 -50.1875 439.6875 C-51.13931152 439.59903809 -52.09112305 439.51057617 -53.07177734 439.41943359 C-61.20970349 438.59089694 -69.25615608 437.345102 -77.3125 435.9375 C-78.46041016 435.74075684 -79.60832031 435.54401367 -80.79101562 435.34130859 C-95.01369832 432.74918967 -106.83714104 429.3471151 -115.6875 417.3125 C-117.0625 414.3125 -117.0625 414.3125 -117.6875 411.3125 C-117.935 410.136875 -118.1825 408.96125 -118.4375 407.75 C-119.72903961 394.48688167 -113.95090956 381.58141589 -109.6875 369.3125 C-107.8551969 364.02336617 -106.04059399 358.72850894 -104.24359131 353.42727661 C-103.46013649 351.12890716 -102.66223459 348.83591352 -101.86376953 346.54272461 C-96.06787765 329.6368017 -94.11164147 312.70767321 -92.60888672 294.97192383 C-90.67028225 272.44882302 -85.97722703 254.03675878 -68.6875 238.3125 C-69.12290858 236.97848223 -69.56097586 235.64533226 -70 234.3125 C-70.27070313 233.47976562 -70.54140625 232.64703125 -70.8203125 231.7890625 C-71.72317373 229.08000107 -71.72317373 229.08000107 -73.375 225.6875 C-76.38779365 217.73308713 -75.86405699 207.16640701 -72.8125 199.2734375 C-71.509079 197.00150228 -69.95596588 195.369111 -68.125 193.5 C-64.24075911 189.41260844 -63.77191388 185.84500712 -63.15234375 180.359375 C-62.5414556 176.35523417 -61.12581162 172.95803498 -59.4921875 169.2734375 C-58.56095425 167.35739187 -58.56095425 167.35739187 -58.6875 165.3125 C-59.58505005 165.12457886 -59.58505005 165.12457886 -60.50073242 164.93286133 C-91.93773683 158.275933 -91.93773683 158.275933 -96.6875 152.3125 C-97.34826082 148.69867615 -97.196898 145.04256927 -97.1875 141.375 C-97.21585938 140.37275391 -97.24421875 139.37050781 -97.2734375 138.33789062 C-97.29265979 131.13433776 -97.29265979 131.13433776 -94.84375 127.80859375 C-86.67600835 123.93700334 -77.90720342 122.69606466 -69 121.6875 C-67.93724854 121.56270264 -66.87449707 121.43790527 -65.77954102 121.30932617 C-54.44305322 120.0524964 -43.08491805 119.59131236 -31.6875 119.3125 C-31.45820801 118.21397705 -31.22891602 117.1154541 -30.99267578 115.98364258 C-28.68474237 105.14393738 -25.85833798 94.57755005 -22.5625 84 C-22.08414311 82.44808067 -21.60579032 80.89616007 -21.12744141 79.34423828 C-9.58524002 42.10798004 -9.58524002 42.10798004 -5.6875 34.3125 C-6.80125 34.395 -7.915 34.4775 -9.0625 34.5625 C-16.34226216 34.5238464 -22.54290607 31.78636954 -27.75 26.75 C-31.33610012 22.9613907 -32.06873289 19.62161877 -31.953125 14.37109375 C-31.48659124 10.75545712 -30.15122944 8.95650233 -27.6875 6.3125 C-19.27625786 1.19846478 -9.66883833 -0.06433278 0 0 Z M11.3125 431.3125 C10.09223921 434.91308186 9.92612321 438.34441963 9.8125 442.125 C9.6475 445.486875 9.4825 448.84875 9.3125 452.3125 C19.8725 452.3125 30.4325 452.3125 41.3125 452.3125 C40.6525 443.7325 39.9925 435.1525 39.3125 426.3125 C36.1775 426.209375 33.0425 426.10625 29.8125 426 C28.84119141 425.95447998 27.86988281 425.90895996 26.86914062 425.86206055 C20.78771755 425.76618783 15.43560679 426.44998095 11.3125 431.3125 Z " fill="#794DDC" transform="translate(251.6875,8.6875)"/>
<path d="M0 0 C0.86850586 0.00418945 1.73701172 0.00837891 2.63183594 0.01269531 C14.74593612 0.22286981 27.96559404 2.01193359 36.80029297 11.12280273 C40.302332 16.193805 41.51983044 22.54986412 43.125 28.4375 C43.55067233 29.9488279 43.97728576 31.45989102 44.40478516 32.97070312 C45.74355137 37.74172232 47.03165032 42.52566251 48.3125 47.3125 C48.52255676 48.091698 48.73261353 48.870896 48.94903564 49.67370605 C55.6489966 74.54442879 61.53095212 99.44326517 62.3125 125.3125 C62.91384766 125.40225098 63.51519531 125.49200195 64.13476562 125.58447266 C116.5357123 133.5357123 116.5357123 133.5357123 125.3125 142.3125 C125.8710492 145.89245758 125.82188979 149.5065786 125.875 153.125 C125.92462891 154.12337891 125.97425781 155.12175781 126.02539062 156.15039062 C126.12526896 163.28931371 126.12526896 163.28931371 123.91870117 166.06713867 C120.43863166 168.68806154 116.75573307 170.08597799 112.5 171 C111.46488281 171.226875 110.42976562 171.45375 109.36328125 171.6875 C108.35652344 171.89375 107.34976563 172.1 106.3125 172.3125 C105.43980469 172.51875 104.56710937 172.725 103.66796875 172.9375 C97.8232519 174.2629161 92.29411535 174.54158314 86.3125 174.3125 C86.68120885 176.60868682 87.08337618 178.89952169 87.5 181.1875 C87.72042969 182.46367187 87.94085938 183.73984375 88.16796875 185.0546875 C88.94429113 188.48191838 88.94429113 188.48191838 91.7265625 189.49609375 C93.00660156 189.90021484 93.00660156 189.90021484 94.3125 190.3125 C101.13161158 197.87047694 103.40509258 207.32572841 103.3125 217.3125 C102.01728363 226.02895614 98.62446339 234.19622608 95.3125 242.3125 C95.869375 242.87195313 96.42625 243.43140625 97 244.0078125 C115.13715933 263.06408464 118.15842988 284.99143691 118.6027832 310.32763672 C118.85900859 324.8828731 119.49979247 338.99407 122.3125 353.3125 C130.7152653 397.54472039 130.7152653 397.54472039 121.3125 414.3125 C116.34714592 421.2712444 110.64932173 426.01098405 102.3125 428.3125 C98.55078125 428.54296875 98.55078125 428.54296875 94.625 428.5 C93.32175781 428.49355469 92.01851562 428.48710937 90.67578125 428.48046875 C87.3125 428.3125 87.3125 428.3125 84.3125 427.3125 C84.33570313 427.88613281 84.35890625 428.45976562 84.3828125 429.05078125 C84.58466309 438.55217703 83.40591553 447.8915537 82.3125 457.3125 C84.045 457.49039063 84.045 457.49039063 85.8125 457.671875 C90.13696307 458.21623963 94.16403842 459.24713413 98.3125 460.5625 C99.00802979 460.78139893 99.70355957 461.00029785 100.42016602 461.22583008 C105.61425178 462.93163235 109.92081598 464.99633043 114.3125 468.3125 C115.75680855 471.20111709 115.68938506 473.10897701 115.3125 476.3125 C108.59589331 486.14753122 92.8030435 487.9891384 81.95556641 490.10498047 C62.13572325 493.83581539 42.25382692 494.80433978 22.12402344 494.70361328 C18.31408927 494.68750672 14.50521536 494.70359207 10.6953125 494.72265625 C-58.33564102 494.78314716 -58.33564102 494.78314716 -76.9375 478.875 C-78.6875 476.3125 -78.6875 476.3125 -79.3125 473.3125 C-78.48100715 469.3213343 -76.98369756 467.51232284 -73.6875 465.3125 C-63.13232498 459.32121738 -47.7957401 455.3125 -35.6875 455.3125 C-35.8525 454.343125 -36.0175 453.37375 -36.1875 452.375 C-36.82146273 448.01762237 -36.7771672 443.70619296 -36.6875 439.3125 C-37.26048828 439.48088379 -37.83347656 439.64926758 -38.42382812 439.82275391 C-42.3533221 440.67290112 -46.21250165 440.05836798 -50.1875 439.6875 C-51.13931152 439.59903809 -52.09112305 439.51057617 -53.07177734 439.41943359 C-61.20970349 438.59089694 -69.25615608 437.345102 -77.3125 435.9375 C-78.46041016 435.74075684 -79.60832031 435.54401367 -80.79101562 435.34130859 C-95.01369832 432.74918967 -106.83714104 429.3471151 -115.6875 417.3125 C-117.0625 414.3125 -117.0625 414.3125 -117.6875 411.3125 C-117.935 410.136875 -118.1825 408.96125 -118.4375 407.75 C-119.72903961 394.48688167 -113.95090956 381.58141589 -109.6875 369.3125 C-107.8551969 364.02336617 -106.04059399 358.72850894 -104.24359131 353.42727661 C-103.46013649 351.12890716 -102.66223459 348.83591352 -101.86376953 346.54272461 C-96.06787765 329.6368017 -94.11164147 312.70767321 -92.60888672 294.97192383 C-90.67028225 272.44882302 -85.97722703 254.03675878 -68.6875 238.3125 C-69.12290858 236.97848223 -69.56097586 235.64533226 -70 234.3125 C-70.27070313 233.47976562 -70.54140625 232.64703125 -70.8203125 231.7890625 C-71.72317373 229.08000107 -71.72317373 229.08000107 -73.375 225.6875 C-76.38779365 217.73308713 -75.86405699 207.16640701 -72.8125 199.2734375 C-71.509079 197.00150228 -69.95596588 195.369111 -68.125 193.5 C-64.24075911 189.41260844 -63.77191388 185.84500712 -63.15234375 180.359375 C-62.5414556 176.35523417 -61.12581162 172.95803498 -59.4921875 169.2734375 C-58.56095425 167.35739187 -58.56095425 167.35739187 -58.6875 165.3125 C-59.58505005 165.12457886 -59.58505005 165.12457886 -60.50073242 164.93286133 C-91.93773683 158.275933 -91.93773683 158.275933 -96.6875 152.3125 C-97.34826082 148.69867615 -97.196898 145.04256927 -97.1875 141.375 C-97.21585938 140.37275391 -97.24421875 139.37050781 -97.2734375 138.33789062 C-97.29265979 131.13433776 -97.29265979 131.13433776 -94.84375 127.80859375 C-86.67600835 123.93700334 -77.90720342 122.69606466 -69 121.6875 C-67.93724854 121.56270264 -66.87449707 121.43790527 -65.77954102 121.30932617 C-54.44305322 120.0524964 -43.08491805 119.59131236 -31.6875 119.3125 C-31.45820801 118.21397705 -31.22891602 117.1154541 -30.99267578 115.98364258 C-28.68474237 105.14393738 -25.85833798 94.57755005 -22.5625 84 C-22.08414311 82.44808067 -21.60579032 80.89616007 -21.12744141 79.34423828 C-9.58524002 42.10798004 -9.58524002 42.10798004 -5.6875 34.3125 C-6.80125 34.395 -7.915 34.4775 -9.0625 34.5625 C-16.34226216 34.5238464 -22.54290607 31.78636954 -27.75 26.75 C-31.33610012 22.9613907 -32.06873289 19.62161877 -31.953125 14.37109375 C-31.48659124 10.75545712 -30.15122944 8.95650233 -27.6875 6.3125 C-19.27625786 1.19846478 -9.66883833 -0.06433278 0 0 Z M-63.15234375 196.6328125 C-67.57665957 201.47366696 -68.29841103 206.54223619 -68.3125 212.8125 C-68.31600464 213.99030029 -68.31600464 213.99030029 -68.31958008 215.19189453 C-68.02143512 224.96827559 -63.66817024 232.69404622 -57.6875 240.3125 C-59.00234375 240.65667969 -59.00234375 240.65667969 -60.34375 241.0078125 C-68.10553203 244.03635829 -74.24465766 251.78236578 -78.125 259 C-84.75399677 274.35558089 -85.89846348 290.56500779 -87.31835938 307.02929688 C-88.55972291 321.15097379 -91.13211737 333.89506553 -95.6875 347.3125 C-96.13737802 348.69381336 -96.58476513 350.07594122 -97.02929688 351.45898438 C-98.2403656 355.21175912 -99.49156118 358.95031804 -100.75 362.6875 C-101.15798828 363.91082031 -101.56597656 365.13414062 -101.98632812 366.39453125 C-103.63700294 371.32308639 -105.28912218 376.24800117 -107.07373047 381.12988281 C-107.52248535 382.35803711 -107.97124023 383.58619141 -108.43359375 384.8515625 C-108.84150146 385.94936035 -109.24940918 387.0471582 -109.66967773 388.17822266 C-112.31989415 396.33928727 -113.41748164 406.42318646 -109.83984375 414.46875 C-104.91674879 422.34570194 -97.3612096 425.21005832 -88.6875 427.3125 C-81.72495793 428.85924654 -74.72225199 430.14229347 -67.6875 431.3125 C-66.59550293 431.49474121 -66.59550293 431.49474121 -65.48144531 431.68066406 C-41.0891722 435.59980627 -8.38835763 436.64231427 13.375 423.5625 C20.90889593 417.78883302 25.64672511 409.56337636 29.9375 401.25 C30.411875 400.3317041 30.88625 399.4134082 31.375 398.46728516 C40.1749916 380.99796482 42.66573761 362.75793064 44.66674805 343.47875977 C45.20884146 338.41615854 45.20884146 338.41615854 46.3125 337.3125 C50.18909362 349.92731695 52.35442864 362.44347623 53.87988281 375.55126953 C55.44059517 388.64429657 57.27394658 403.72338509 67.3125 413.3125 C69.64264252 414.84089488 72.06958689 415.96178616 74.625 417.0625 C75.25083984 417.35253906 75.87667969 417.64257812 76.52148438 417.94140625 C84.78846067 421.65518637 94.06845913 424.37542796 102.9609375 421.4375 C110.07035475 418.19236059 114.86934642 413.81893166 118.125 406.6875 C122.90325898 393.10718499 120.64453094 377.51150541 117.79199219 363.71289062 C116.83233518 358.90874208 116.02284692 354.07700238 115.1875 349.25 C115.01702148 348.28602295 114.84654297 347.3220459 114.67089844 346.32885742 C114.50879883 345.40435791 114.34669922 344.4798584 114.1796875 343.52734375 C113.96481689 342.30712524 113.96481689 342.30712524 113.74560547 341.06225586 C112.62663272 333.95797738 112.16920363 327.14539978 112.13671875 319.9609375 C112.11351079 317.9544167 112.08939307 315.94790626 112.06445312 313.94140625 C112.02950742 310.82170746 112.00006439 307.70238938 111.98657227 304.58251953 C111.86219063 280.45248197 106.76253794 262.74329575 89.3125 245.1875 C88.3176912 244.22377897 87.319809 243.26314787 86.3125 242.3125 C87.74946005 238.48060653 89.51154749 234.88760735 91.36328125 231.24609375 C92.47468748 228.9821181 93.38851647 226.65799666 94.3125 224.3125 C94.6425 223.9825 94.9725 223.6525 95.3125 223.3125 C95.49461752 220.44340273 95.5908968 217.62148906 95.625 214.75 C95.65400391 213.96302734 95.68300781 213.17605469 95.71289062 212.36523438 C95.77478437 206.59007228 94.65737305 202.0989293 91.3125 197.3125 C90.3225 196.8175 90.3225 196.8175 89.3125 196.3125 C89.18294922 197.25222656 89.18294922 197.25222656 89.05078125 198.2109375 C88.84001953 199.43683594 88.84001953 199.43683594 88.625 200.6875 C88.49738281 201.49960938 88.36976563 202.31171875 88.23828125 203.1484375 C87.3125 205.3125 87.3125 205.3125 85.1171875 206.421875 C84.19164062 206.71578125 83.26609375 207.0096875 82.3125 207.3125 C81.34957031 207.76367188 80.38664063 208.21484375 79.39453125 208.6796875 C71.96933054 212.10397361 64.88280066 214.2549561 56.86230469 215.83227539 C51.26986993 216.971719 46.43939525 218.75651991 41.37890625 221.45703125 C30.96413368 224.36255379 17.42124367 219.6085784 7 217.625 C5.08375648 217.2626094 3.16749657 216.90030548 1.2512207 216.53808594 C-2.5832435 215.81185476 -6.41686288 215.0813457 -10.25 214.34814453 C-14.42710138 213.55009464 -18.60686862 212.76789668 -22.78865051 211.99479675 C-26.19462832 211.36213712 -29.59705699 210.71128179 -33 210.0625 C-34.21276611 209.84118408 -35.42553223 209.61986816 -36.67504883 209.3918457 C-42.59153089 208.23952877 -47.0041653 207.17447415 -51.6875 203.3125 C-52.265 202.879375 -52.8425 202.44625 -53.4375 202 C-55.38362649 199.37272924 -55.91774747 196.45072186 -56.6875 193.3125 C-59.55709276 193.3125 -60.97327023 194.92745062 -63.15234375 196.6328125 Z M11.3125 431.3125 C10.09223921 434.91308186 9.92612321 438.34441963 9.8125 442.125 C9.6475 445.486875 9.4825 448.84875 9.3125 452.3125 C19.8725 452.3125 30.4325 452.3125 41.3125 452.3125 C40.6525 443.7325 39.9925 435.1525 39.3125 426.3125 C36.1775 426.209375 33.0425 426.10625 29.8125 426 C28.84119141 425.95447998 27.86988281 425.90895996 26.86914062 425.86206055 C20.78771755 425.76618783 15.43560679 426.44998095 11.3125 431.3125 Z " fill="#010102" transform="translate(251.6875,8.6875)"/>
<path d="M0 0 C0.5859375 1.92057292 1.171875 3.84114583 1.7578125 5.76171875 C4.12015308 10.01838904 7.67295006 12.49735157 12.12353516 14.18310547 C13.29190918 14.45010254 14.4602832 14.71709961 15.6640625 14.9921875 C16.67383652 15.22565384 16.67383652 15.22565384 17.70401001 15.46383667 C29.18474011 18.03750186 40.80049916 20.02773207 52.375 22.125 C56.01661734 22.78970514 59.65796629 23.45586059 63.29922485 24.12252808 C65.5473084 24.5336061 67.79564474 24.94330507 70.04428101 25.35134888 C75.68633045 26.37775349 81.31431518 27.44742069 86.92953491 28.61233521 C92.74678752 29.70153205 96.40397682 28.6497704 101.75 26.25 C107.45217057 23.79045086 112.97023327 22.2315917 119.0625 21.0625 C126.57707587 19.60016933 132.68308274 17.07737571 139.375 13.390625 C142 12 142 12 144 12 C144.66 9.03 145.32 6.06 146 3 C149.65118597 6.28606737 151.72947388 9.0525235 152.18896484 14.05883789 C152.26839496 16.43845295 152.27280065 18.8067323 152.25 21.1875 C152.25773438 22.00669922 152.26546875 22.82589844 152.2734375 23.66992188 C152.25343208 29.74656792 152.25343208 29.74656792 150 32 C148.93043146 34.72804932 148.02305493 37.4934949 147.09765625 40.2734375 C146.03124445 42.92238922 144.81699505 44.81546464 143 47 C144.38972246 50.19845671 145.97459224 52.06418136 148.5625 54.375 C159.20694233 64.80655349 167.85366043 80.26632842 168.1418457 95.37768555 C168.15692719 97.13066824 168.16798564 98.88368852 168.17578125 100.63671875 C168.19589439 102.58399723 168.21726418 104.53126305 168.23974609 106.47851562 C168.25651398 108.00085815 168.25651398 108.00085815 168.27362061 109.55395508 C168.49875309 127.69885596 169.24451853 145.18910307 173 163 C173.15291504 163.75055664 173.30583008 164.50111328 173.46337891 165.27441406 C174.06507196 168.21678166 174.69300394 171.14818419 175.38671875 174.0703125 C178.18155126 187.4214232 179.87256352 205.12577816 172.67578125 217.2265625 C169.70433583 221.51605064 166.61388399 224.44763864 162 227 C160.88625 227.61875 160.88625 227.61875 159.75 228.25 C148.71065089 231.26073158 137.74182266 227.12153049 127.9375 222.0625 C120.01416404 217.44629557 116.80190135 210.99881344 114.22045898 202.40478516 C112.16917978 194.46653513 111.07173723 186.57254339 110.125 178.4375 C108.66423441 166.6216266 106.49575053 155.37551606 103 144 C101.44999567 148.952296 100.56971644 153.70636738 100.0625 158.875 C97.44037165 182.50265651 91.58552421 209.66532962 74.18359375 227.27734375 C63.47865102 235.72256691 50.26988229 238.28443972 37 239.1875 C35.90913086 239.26572998 34.81826172 239.34395996 33.69433594 239.42456055 C16.67196771 240.56727736 0.81946613 239.95051252 -16 237 C-16.89525391 236.8448291 -17.79050781 236.6896582 -18.71289062 236.52978516 C-42.89381037 232.25410342 -42.89381037 232.25410342 -48.625 226.25 C-49.305625 225.13625 -49.305625 225.13625 -50 224 C-47.03422436 224 -45.12775353 224.48392452 -42.3125 225.3359375 C-34.97881158 227.38619008 -27.5201801 228.51612712 -20 229.625 C-18.90268555 229.78792038 -18.90268555 229.78792038 -17.78320312 229.95413208 C8.17381649 233.77648741 39.99843512 236.89710644 64 224 C65.546875 223.195625 65.546875 223.195625 67.125 222.375 C74.46286816 216.31328283 78.70983042 207.2267672 82.6875 198.75 C83.16445313 197.73711914 83.64140625 196.72423828 84.1328125 195.68066406 C87.57514444 188.22148357 90.37774426 181.0839373 92 173 C92.1330957 172.34273926 92.26619141 171.68547852 92.40332031 171.00830078 C98.38182184 140.47873972 96.67756404 111.93279563 92.15625 81.51171875 C92.00465172 80.48778267 92.00465172 80.48778267 91.84999084 79.44316101 C91.32262756 75.94067328 90.73013436 72.46605448 90 69 C89.12077881 68.96036133 88.24155762 68.92072266 87.33569336 68.87988281 C24.13538544 65.89760927 24.13538544 65.89760927 4 51 C3.0925 50.401875 2.185 49.80375 1.25 49.1875 C-2.17212823 45.86043089 -4.56385987 42.0847062 -7 38 C-7.62841797 37.03320312 -7.62841797 37.03320312 -8.26953125 36.046875 C-12.38822644 28.65359883 -12.17128091 19.2050143 -11 11 C-9.36352179 6.30401904 -5.58140095 0 0 0 Z " fill="#6F45D0" transform="translate(195,202)"/>
<path d="M0 0 C5.50589609 4.13522998 7.77260664 8.88314016 9.5390625 15.390625 C9.77544434 16.22094238 10.01182617 17.05125977 10.25537109 17.90673828 C11.14172685 21.06256041 11.99659231 24.22615305 12.8515625 27.390625 C13.24415024 28.82272245 13.63724716 30.25468038 14.03076172 31.68652344 C22.04946758 60.92914909 27.37790881 89.17671207 29.8515625 119.390625 C30.75583984 119.5357251 31.66011719 119.6808252 32.59179688 119.83032227 C74.89172583 126.70968856 74.89172583 126.70968856 92.8515625 134.390625 C92.81855591 136.66207846 92.74916245 138.93302626 92.6640625 141.203125 C92.62925781 142.46769531 92.59445312 143.73226562 92.55859375 145.03515625 C91.8515625 148.390625 91.8515625 148.390625 89.92578125 150.21484375 C37.52205837 170.25743662 -63.16855554 158.13535408 -114.1484375 138.390625 C-115.1384375 137.730625 -116.1284375 137.070625 -117.1484375 136.390625 C-117.44140625 133.1328125 -117.44140625 133.1328125 -117.3359375 129.265625 C-117.30886719 127.98429688 -117.28179687 126.70296875 -117.25390625 125.3828125 C-117.21910156 124.39539063 -117.18429688 123.40796875 -117.1484375 122.390625 C-99.22987792 112.52442425 -72.12641822 113.84741706 -52.1484375 114.390625 C-52.07238281 113.24207031 -51.99632812 112.09351563 -51.91796875 110.91015625 C-51.07773193 103.45251029 -48.86610138 96.2807909 -46.8359375 89.078125 C-46.61834778 88.29994415 -46.40075806 87.52176331 -46.17657471 86.72000122 C-29.51580398 27.322732 -29.51580398 27.322732 -18.1484375 9.390625 C-19.7984375 9.060625 -21.4484375 8.730625 -23.1484375 8.390625 C-23.3753125 8.98875 -23.6021875 9.586875 -23.8359375 10.203125 C-25.62869991 13.19106235 -26.90837687 14.04059974 -30.1484375 15.390625 C-36.98130407 16.3667488 -42.46615229 15.34233414 -48.1484375 11.390625 C-50.737721 8.96317172 -51.08998754 7.86796635 -51.5234375 4.328125 C-51.09563975 0.97704262 -50.69055006 0.45149131 -48.1484375 -1.609375 C-34.7231993 -7.99358808 -13.11953328 -6.35748309 0 0 Z " fill="#B9E1FB" transform="translate(278.1484375,20.609375)"/>
<path d="M0 0 C0 0.33 0 0.66 0 1 C-6.435 1.495 -6.435 1.495 -13 2 C-9.04 2.33 -5.08 2.66 -1 3 C-1 4.65 -1 6.3 -1 8 C4.67969184 9.78991653 10.29038963 10.77306156 16.1875 11.5625 C17.15075195 11.69180908 18.11400391 11.82111816 19.10644531 11.9543457 C28.72500914 13.18460882 38.31044381 13.76294664 48 14 C48.78391113 14.02191406 49.56782227 14.04382813 50.37548828 14.06640625 C60.7871695 14.32631924 70.71643854 13.69875942 81 12 C81 9.69 81 7.38 81 5 C102.73520264 8.2296834 124.45218051 11.90837657 145 20 C144.96699341 22.27145346 144.89759995 24.54240126 144.8125 26.8125 C144.77769531 28.07707031 144.74289062 29.34164062 144.70703125 30.64453125 C144 34 144 34 142.07421875 35.82421875 C89.67049587 55.86681162 -11.02011804 43.74472908 -62 24 C-62.99 23.34 -63.98 22.68 -65 22 C-65.29296875 18.7421875 -65.29296875 18.7421875 -65.1875 14.875 C-65.16042969 13.59367188 -65.13335937 12.31234375 -65.10546875 10.9921875 C-65.07066406 10.00476563 -65.03585938 9.01734375 -65 8 C-47.08144042 -1.86620075 -19.97798072 -0.54320794 0 0 Z " fill="#89CBEE" transform="translate(226,135)"/>
<path d="M0 0 C0.5859375 1.92057292 1.171875 3.84114583 1.7578125 5.76171875 C4.12015308 10.01838904 7.67295006 12.49735157 12.12353516 14.18310547 C13.29190918 14.45010254 14.4602832 14.71709961 15.6640625 14.9921875 C16.33724518 15.14783173 17.01042786 15.30347595 17.70401001 15.46383667 C29.18474011 18.03750186 40.80049916 20.02773207 52.375 22.125 C56.01661734 22.78970514 59.65796629 23.45586059 63.29922485 24.12252808 C65.5473084 24.5336061 67.79564474 24.94330507 70.04428101 25.35134888 C75.68633045 26.37775349 81.31431518 27.44742069 86.92953491 28.61233521 C92.74678752 29.70153205 96.40397682 28.6497704 101.75 26.25 C107.45217057 23.79045086 112.97023327 22.2315917 119.0625 21.0625 C126.57707587 19.60016933 132.68308274 17.07737571 139.375 13.390625 C142 12 142 12 144 12 C144.66 9.03 145.32 6.06 146 3 C149.65118597 6.28606737 151.72947388 9.0525235 152.18896484 14.05883789 C152.26839496 16.43845295 152.27280065 18.8067323 152.25 21.1875 C152.25773438 22.00669922 152.26546875 22.82589844 152.2734375 23.66992188 C152.25343208 29.74656792 152.25343208 29.74656792 150 32 C149.47465809 33.72163679 148.97867348 35.45230864 148.5 37.1875 C145.7001622 45.06204381 140.31904058 47.86958376 133.1015625 51.4296875 C125.65388263 54.73325153 117.23924241 58 109 58 C109.23783203 57.17435547 109.23783203 57.17435547 109.48046875 56.33203125 C110.76680864 50.55800935 111.09900465 44.22710386 108.1875 38.9375 C106.14898804 35.85663229 106.14898804 35.85663229 103 34 C103.92237399 36.37181882 104.82103804 38.67534039 106.05078125 40.90625 C107.08877903 43.19582536 107.29900125 44.7482324 107.3125 47.25 C107.32925781 47.95640625 107.34601563 48.6628125 107.36328125 49.390625 C107.01479878 51.89370342 106.38099294 53.81595024 105.47729492 56.16308594 C105.20213547 56.88204041 104.92697601 57.60099487 104.64347839 58.34173584 C104.43113052 58.88896301 104.21878265 59.43619019 104 60 C96.90161917 60.02546706 89.80325023 60.0429159 82.70483398 60.05493164 C80.29272013 60.05994374 77.88060929 60.06675516 75.46850586 60.07543945 C71.99071507 60.08764223 68.51296463 60.09325968 65.03515625 60.09765625 C63.96604507 60.10281754 62.8969339 60.10797882 61.79542542 60.11329651 C53.54028991 60.11390757 45.83773461 59.83581586 38 57 C35.39872238 56.33418075 32.79826945 55.68784145 30.1875 55.0625 C24.34731806 53.63734531 18.6669353 52.02390547 13 50 C13 49.34 13 48.68 13 48 C12.11957031 47.76152344 11.23914063 47.52304688 10.33203125 47.27734375 C6.6663668 45.87210076 4.55838941 44.21556776 1.6875 41.5625 C0.82511719 40.78003906 -0.03726563 39.99757812 -0.92578125 39.19140625 C-3 37 -3 37 -4 34 C-4.66 34 -5.32 34 -6 34 C-8.03435531 30.27034861 -9 28.33094958 -9 24 C-9.66 24 -10.32 24 -11 24 C-11.91728928 10.62796068 -11.91728928 10.62796068 -7.37109375 4.5234375 C-3.3 0 -3.3 0 0 0 Z " fill="#7247D5" transform="translate(195,202)"/>
<path d="M0 0 C0.66 0 1.32 0 2 0 C2.99 3.3 3.98 6.6 5 10 C5.66 10 6.32 10 7 10 C8.04497358 11.16965793 9.036096 12.38768092 10 13.625 C13.48791657 17.77517921 17.2209733 20.2101336 21.9609375 22.7734375 C24 24 24 24 25 26 C27.79028242 26.93208578 30.53591835 27.74760222 33.375 28.5 C34.18831787 28.72139648 35.00163574 28.94279297 35.83959961 29.17089844 C41.22972218 30.6102606 46.60961273 31.80054988 52.12890625 32.640625 C54 33 54 33 55 34 C62.01078848 34.99858927 68.96184719 35.2058353 76.03515625 35.31640625 C77.7140519 35.3475779 77.7140519 35.3475779 79.42686462 35.37937927 C82.97201916 35.44431361 86.5172423 35.50349666 90.0625 35.5625 C92.47852248 35.60573869 94.89453823 35.64935461 97.31054688 35.69335938 C103.20696053 35.79993678 109.10344113 35.90180317 115 36 C115.32307129 34.73164307 115.64614258 33.46328613 115.97900391 32.15649414 C116.16073151 31.44304337 116.34245911 30.72959259 116.5296936 29.99452209 C117.80046973 24.60528843 117.856403 19.92250493 114.9375 15.125 C114.298125 14.09375 113.65875 13.0625 113 12 C113.33 11.01 113.66 10.02 114 9 C118.10899888 11.88740462 120.34941774 14.22199872 122 19 C122.50282754 24.41325274 122.82513934 29.20514199 120 34 C131.57443913 31.16963852 143.31019533 28.2673535 153 21 C153.66 21.33 154.32 21.66 155 22 C154.01 23.65 153.02 25.3 152 27 C152.66 27 153.32 27 154 27 C152.30852241 32.07443278 147.5942431 33.6676285 143 36 C133.95510674 39.96686351 125.02545205 41.93467627 115.32421875 43.421875 C112.16542675 43.64274212 112.16542675 43.64274212 111 45 C110.31099308 53.45524617 111.62674276 61.78557932 112.875 70.125 C113.22842524 72.54399941 113.57996841 74.9632745 113.9296875 77.3828125 C114.11088135 78.61797607 114.2920752 79.85313965 114.47875977 81.12573242 C114.83656705 83.78523769 115.15312348 86.41892996 115.40991211 89.0871582 C116.37556777 98.93575633 118.40806585 108.07980484 121.13934326 117.58230591 C125.40633891 132.51137425 128.51971587 147.28250816 130.37817383 162.69702148 C132.33107448 180.21103105 132.33107448 180.21103105 141 195 C144.52840887 197.08722778 148.08363939 198.87948803 151.8203125 200.5546875 C155 202 155 202 158 204 C151.80633187 203.52783696 147.24567229 202.09186856 141.75 199.25 C141.05648437 198.91484375 140.36296875 198.5796875 139.6484375 198.234375 C132.03439592 194.38359535 128.92054572 188.77607698 126 181 C123.37549369 172.26260506 122.17689863 163.47616535 121.125 154.4375 C119.66423441 142.6216266 117.49575053 131.37551606 114 120 C112.44999567 124.952296 111.56971644 129.70636738 111.0625 134.875 C108.44037165 158.50265651 102.58552421 185.66532962 85.18359375 203.27734375 C74.47865102 211.72256691 61.26988229 214.28443972 48 215.1875 C46.90913086 215.26572998 45.81826172 215.34395996 44.69433594 215.42456055 C27.67196771 216.56727736 11.81946613 215.95051252 -5 213 C-5.89525391 212.8448291 -6.79050781 212.6896582 -7.71289062 212.52978516 C-31.89381037 208.25410342 -31.89381037 208.25410342 -37.625 202.25 C-38.305625 201.13625 -38.305625 201.13625 -39 200 C-36.03422436 200 -34.12775353 200.48392452 -31.3125 201.3359375 C-23.97881158 203.38619008 -16.5201801 204.51612712 -9 205.625 C-7.90268555 205.78792038 -7.90268555 205.78792038 -6.78320312 205.95413208 C19.17381649 209.77648741 50.99843512 212.89710644 75 200 C76.546875 199.195625 76.546875 199.195625 78.125 198.375 C85.46286816 192.31328283 89.70983042 183.2267672 93.6875 174.75 C94.16445313 173.73711914 94.64140625 172.72423828 95.1328125 171.68066406 C98.57514444 164.22148357 101.37774426 157.0839373 103 149 C103.1330957 148.34273926 103.26619141 147.68547852 103.40332031 147.00830078 C109.38182184 116.47873972 107.67756404 87.93279563 103.15625 57.51171875 C103.05518448 56.8290947 102.95411896 56.14647064 102.84999084 55.44316101 C102.32262756 51.94067328 101.73013436 48.46605448 101 45 C100.12077881 44.96036133 99.24155762 44.92072266 98.33569336 44.87988281 C35.13538544 41.89760927 35.13538544 41.89760927 15 27 C13.63875 26.1028125 13.63875 26.1028125 12.25 25.1875 C6.24952062 19.35370061 0.4432196 10.42944007 -0.25 1.9375 C-0.1675 1.298125 -0.085 0.65875 0 0 Z " fill="#56339E" transform="translate(184,226)"/>
<path d="M0 0 C0.5859375 1.92057292 1.171875 3.84114583 1.7578125 5.76171875 C4.12015308 10.01838904 7.67295006 12.49735157 12.12353516 14.18310547 C13.29190918 14.45010254 14.4602832 14.71709961 15.6640625 14.9921875 C16.33724518 15.14783173 17.01042786 15.30347595 17.70401001 15.46383667 C29.18474011 18.03750186 40.80049916 20.02773207 52.375 22.125 C56.01661734 22.78970514 59.65796629 23.45586059 63.29922485 24.12252808 C65.5473084 24.5336061 67.79564474 24.94330507 70.04428101 25.35134888 C75.68633045 26.37775349 81.31431518 27.44742069 86.92953491 28.61233521 C92.74678752 29.70153205 96.40397682 28.6497704 101.75 26.25 C107.45217057 23.79045086 112.97023327 22.2315917 119.0625 21.0625 C126.57707587 19.60016933 132.68308274 17.07737571 139.375 13.390625 C142 12 142 12 144 12 C144.66 9.03 145.32 6.06 146 3 C149.65118597 6.28606737 151.72947388 9.0525235 152.18896484 14.05883789 C152.26839496 16.43845295 152.27280065 18.8067323 152.25 21.1875 C152.25773438 22.00669922 152.26546875 22.82589844 152.2734375 23.66992188 C152.25343208 29.74656792 152.25343208 29.74656792 150 32 C149.47465809 33.72163679 148.97867348 35.45230864 148.5 37.1875 C145.7001622 45.06204381 140.31904058 47.86958376 133.1015625 51.4296875 C125.65388263 54.73325153 117.23924241 58 109 58 C109.23783203 57.17435547 109.23783203 57.17435547 109.48046875 56.33203125 C110.76680864 50.55800935 111.09900465 44.22710386 108.1875 38.9375 C106.14898804 35.85663229 106.14898804 35.85663229 103 34 C103.92204205 36.37096528 104.81952671 38.67326955 106.05078125 40.90234375 C107.92857228 45.0520301 107.68179041 49.8403402 106.32421875 54.140625 C105.61651803 55.79080867 104.81656837 57.40088694 104 59 C102.67770811 56.35541621 102.90322806 54.32238699 102.9375 51.375 C102.94652344 50.37210938 102.95554687 49.36921875 102.96484375 48.3359375 C102.97644531 47.56507813 102.98804688 46.79421875 103 46 C102.34 46 101.68 46 101 46 C101 45.34 101 44.68 101 44 C100.34 44 99.68 44 99 44 C99 43.34 99 42.68 99 42 C98.34 42 97.68 42 97 42 C97 41.34 97 40.68 97 40 C96.41992188 40.02320313 95.83984375 40.04640625 95.2421875 40.0703125 C90.31399006 40.18416525 86.67362243 39.69045918 82 38 C80.10662132 37.77148878 78.21284769 37.54526939 76.31640625 37.34375 C73.58428841 36.93830924 70.98325371 36.26625592 68.3125 35.5625 C60.65245002 33.57476551 52.90439672 32.49579641 45.0625 31.5 C42 31 42 31 38.875 29.9375 C36.10786133 28.87082475 36.10786133 28.87082475 33.5 29 C31 29 31 29 28.25 28.0625 C25.46141855 27.15084837 23.37796634 26.79428252 20.5 26.5625 C16.459887 26.18032715 13.48595185 25.17871991 10 23 C9.67 22.34 9.34 21.68 9 21 C7.845 20.525625 6.69 20.05125 5.5 19.5625 C4.345 19.046875 3.19 18.53125 2 18 C1.67 17.01 1.34 16.02 1 15 C0.34 15 -0.32 15 -1 15 C-1 13.68 -1 12.36 -1 11 C-4.53372712 12.96318174 -7.24479785 15.04070881 -10 18 C-10.37964752 13.25440599 -10.48228172 9.93011475 -8.25 5.625 C-3.42857143 0 -3.42857143 0 0 0 Z " fill="#7C55D5" transform="translate(195,202)"/>
<path d="M0 0 C5.43330107 0.42308492 10.56866914 1.04429535 15.84692383 2.47021484 C18.32680326 3.08041309 20.80329588 3.50441526 23.32421875 3.9140625 C24.91991699 4.17449341 24.91991699 4.17449341 26.54785156 4.44018555 C27.68706055 4.62492432 28.82626953 4.80966309 30 5 C31.15725586 5.19182861 32.31451172 5.38365723 33.50683594 5.58129883 C37.31541568 6.21053578 41.12623723 6.82473849 44.9375 7.4375 C46.16662109 7.64181641 47.39574219 7.84613281 48.66210938 8.05664062 C71.70120411 11.73418881 94.60183853 13.48773916 117.93139648 13.33618164 C121.82882219 13.31240041 125.72556576 13.31568245 129.62304688 13.32226562 C149.54337358 13.30030569 169.41403521 12.74933005 188.953125 8.5859375 C192 8 192 8 196 8 C196.28527062 11.37887205 196.4086033 14.62766078 196 18 C187.43478457 27.1362298 162.71406242 24.65143814 150.98773193 25.07220459 C100.19065374 26.63810525 43.98006659 24.69401998 -5 10 C-3.68 9.67 -2.36 9.34 -1 9 C-1 7.68733467 -1.03457727 6.37486832 -1.0625 5.0625 C-1 2 -1 2 0 0 Z " fill="#56ABD0" transform="translate(174,151)"/>
<path d="M0 0 C0.66 0 1.32 0 2 0 C2.99 3.3 3.98 6.6 5 10 C5.66 10 6.32 10 7 10 C8.04497358 11.16965793 9.036096 12.38768092 10 13.625 C13.48791657 17.77517921 17.2209733 20.2101336 21.9609375 22.7734375 C24 24 24 24 25 26 C27.79028242 26.93208578 30.53591835 27.74760222 33.375 28.5 C34.18831787 28.72139648 35.00163574 28.94279297 35.83959961 29.17089844 C41.22972218 30.6102606 46.60961273 31.80054988 52.12890625 32.640625 C54 33 54 33 55 34 C62.01078848 34.99858927 68.96184719 35.2058353 76.03515625 35.31640625 C77.7140519 35.3475779 77.7140519 35.3475779 79.42686462 35.37937927 C82.97201916 35.44431361 86.5172423 35.50349666 90.0625 35.5625 C92.47852248 35.60573869 94.89453823 35.64935461 97.31054688 35.69335938 C103.20696053 35.79993678 109.10344113 35.90180317 115 36 C115.32307129 34.73164307 115.64614258 33.46328613 115.97900391 32.15649414 C116.25159531 31.08631798 116.25159531 31.08631798 116.5296936 29.99452209 C117.80046973 24.60528843 117.856403 19.92250493 114.9375 15.125 C114.298125 14.09375 113.65875 13.0625 113 12 C113.33 11.01 113.66 10.02 114 9 C118.10899888 11.88740462 120.34941774 14.22199872 122 19 C122.50282754 24.41325274 122.82513934 29.20514199 120 34 C131.57443913 31.16963852 143.31019533 28.2673535 153 21 C153.66 21.33 154.32 21.66 155 22 C154.01 23.65 153.02 25.3 152 27 C152.66 27 153.32 27 154 27 C152.30852241 32.07443278 147.5942431 33.6676285 143 36 C133.95510674 39.96686351 125.02545205 41.93467627 115.32421875 43.421875 C112.16542675 43.64274212 112.16542675 43.64274212 111 45 C110.76807135 46.51469448 110.58784762 48.03754562 110.4375 49.5625 C110.31181641 50.80193359 110.31181641 50.80193359 110.18359375 52.06640625 C110.12300781 52.70449219 110.06242187 53.34257812 110 54 C109.67 54 109.34 54 109 54 C108.505 49.545 108.505 49.545 108 45 C106.93023926 44.970271 106.93023926 44.970271 105.83886719 44.93994141 C37.21729013 42.94628082 37.21729013 42.94628082 15 27 C14.0925 26.401875 13.185 25.80375 12.25 25.1875 C6.24952062 19.35370061 0.4432196 10.42944007 -0.25 1.9375 C-0.1675 1.298125 -0.085 0.65875 0 0 Z " fill="#5D3AAE" transform="translate(184,226)"/>
<path d="M0 0 C0.5859375 1.92057292 1.171875 3.84114583 1.7578125 5.76171875 C4.12346149 10.02435041 7.67740832 12.49986895 12.13452148 14.18530273 C13.30571533 14.45286377 14.47690918 14.7204248 15.68359375 14.99609375 C16.35780869 15.15194443 17.03202362 15.3077951 17.72666931 15.46836853 C29.09634095 18.01722209 40.59956788 19.98770851 52.0625 22.0625 C61.04338537 23.69897374 70.02321463 25.3411722 79 27 C80.26450989 27.23304337 80.26450989 27.23304337 81.55456543 27.47079468 C83.66939818 27.86369408 85.78227536 28.26538475 87.89453125 28.671875 C88.98999268 28.88038086 90.0854541 29.08888672 91.21411133 29.30371094 C97.30547189 30.82615072 101.35362607 33.68335335 105 38.75 C107.44923001 43.14372005 107.84474226 47.07233679 107 52 C106.18902339 54.50665497 105.20451009 56.64116773 104 59 C102.67770811 56.35541621 102.90322806 54.32238699 102.9375 51.375 C102.94652344 50.37210938 102.95554687 49.36921875 102.96484375 48.3359375 C102.97644531 47.56507813 102.98804688 46.79421875 103 46 C102.34 46 101.68 46 101 46 C101 45.34 101 44.68 101 44 C100.34 44 99.68 44 99 44 C99 43.34 99 42.68 99 42 C98.34 42 97.68 42 97 42 C97 41.34 97 40.68 97 40 C96.41992188 40.02320313 95.83984375 40.04640625 95.2421875 40.0703125 C90.31399006 40.18416525 86.67362243 39.69045918 82 38 C80.10662132 37.77148878 78.21284769 37.54526939 76.31640625 37.34375 C73.58428841 36.93830924 70.98325371 36.26625592 68.3125 35.5625 C60.65245002 33.57476551 52.90439672 32.49579641 45.0625 31.5 C42 31 42 31 38.875 29.9375 C36.10786133 28.87082475 36.10786133 28.87082475 33.5 29 C31 29 31 29 28.25 28.0625 C25.46141855 27.15084837 23.37796634 26.79428252 20.5 26.5625 C16.459887 26.18032715 13.48595185 25.17871991 10 23 C9.67 22.34 9.34 21.68 9 21 C7.845 20.525625 6.69 20.05125 5.5 19.5625 C4.345 19.046875 3.19 18.53125 2 18 C1.67 17.01 1.34 16.02 1 15 C0.34 15 -0.32 15 -1 15 C-1 13.68 -1 12.36 -1 11 C-4.53372712 12.96318174 -7.24479785 15.04070881 -10 18 C-10.37964752 13.25440599 -10.48228172 9.93011475 -8.25 5.625 C-3.42857143 0 -3.42857143 0 0 0 Z " fill="#9879E0" transform="translate(195,202)"/>
<path d="M0 0 C8.08609351 -0.10486288 15.96835418 0.02646717 24 1 C24.33 7.6 24.66 14.2 25 21 C26.65 21.33 28.3 21.66 30 22 C31.54950268 20.45049732 31.21655193 18.90009406 31.31640625 16.74609375 C31.37924805 15.46508789 31.37924805 15.46508789 31.44335938 14.15820312 C31.48267578 13.26037109 31.52199219 12.36253906 31.5625 11.4375 C31.62727539 10.08495117 31.62727539 10.08495117 31.69335938 8.70507812 C31.79978142 6.47021515 31.90179988 4.23523692 32 2 C32.99 2.33 33.98 2.66 35 3 C36.9781303 8.9343909 36.74179565 14.95576999 34.375 20.75 C31.83548904 25.82004838 28.61483071 29.44523579 23.6875 32.375 C18.46879083 33.5886533 13.80604604 33.65990144 8.75 31.8125 C3.61327273 28.42692975 -0.73113738 24.16786124 -2.5625 18.15234375 C-3.04618813 15.77277092 -3.20461763 13.55295693 -3.25 11.125 C-3.27578125 10.30257812 -3.3015625 9.48015625 -3.328125 8.6328125 C-2.91422007 5.31171822 -1.61072672 2.9077856 0 0 Z " fill="#FDFDFD" transform="translate(239,179)"/>
<path d="M0 0 C7.92 0 15.84 0 24 0 C24.495 8.415 24.495 8.415 25 17 C26.65 17.33 28.3 17.66 30 18 C32.11925604 15.88074396 31.41831017 11.3803907 31.5625 8.4375 C31.62727539 7.22803711 31.62727539 7.22803711 31.69335938 5.99414062 C31.79975262 3.99631195 31.90040888 1.9981793 32 0 C33.65 0 35.3 0 37 0 C39.16851809 4.33703618 38.59023672 9.88526615 37.31640625 14.44921875 C34.82086668 20.54827605 31.43242058 24.95910128 25.6875 28.375 C20.56391456 29.5665315 15.90011897 29.60803807 10.875 28 C5.22858886 24.07206181 0.24972187 18.94289927 -1 12 C-1.50139276 3.00278552 -1.50139276 3.00278552 0 0 Z " fill="#FCFCFC" transform="translate(284,183)"/>
<path d="M0 0 C-2.94251857 1.96167905 -3.76953598 2.27482176 -7.08984375 2.52734375 C-7.87423828 2.59759766 -8.65863281 2.66785156 -9.46679688 2.74023438 C-11.10974476 2.87141045 -12.75298032 2.99903346 -14.39648438 3.12304688 C-20.3007619 3.59100574 -20.3007619 3.59100574 -25 7 C-25 7.66 -25 8.32 -25 9 C-16.68015955 10.25101251 -8.38955907 11.34938113 0 12 C0 12.66 0 13.32 0 14 C0.66 13.773125 1.32 13.54625 2 13.3125 C5.5914942 12.93838602 7.59204853 13.78377492 10.83984375 15.2109375 C15.93260617 17.07122323 21.51750486 17.34689583 26.875 18 C28.90275596 18.25005083 30.93050492 18.50010164 32.95800781 18.75219727 C34.33662276 18.9194969 35.71624765 19.07864713 37.09667969 19.23022461 C41.04622714 19.67844321 44.71468646 20.35330262 48.5 21.5625 C49.3559375 21.83191406 50.211875 22.10132813 51.09375 22.37890625 C52.03734375 22.68634766 52.03734375 22.68634766 53 23 C53 23.33 53 23.66 53 24 C28.76460815 25.51471199 3.94271598 19.46786362 -19.64526367 14.49316406 C-22.09395073 13.98032343 -24.5461229 13.48734114 -27 13 C-27.061875 14.27875 -27.12375 15.5575 -27.1875 16.875 C-27.22230469 17.59429687 -27.25710937 18.31359375 -27.29296875 19.0546875 C-27.19628906 19.69664062 -27.09960938 20.33859375 -27 21 C-26.01 21.66 -25.02 22.32 -24 23 C-25.73007151 22.91213297 -27.45911665 22.80394326 -29.1875 22.6875 C-30.15042969 22.62949219 -31.11335937 22.57148438 -32.10546875 22.51171875 C-35.50286295 21.9110998 -37.40151395 21.2972123 -40 19 C-40.48828125 15.64453125 -40.48828125 15.64453125 -40.3125 11.8125 C-40.24482422 9.90404297 -40.24482422 9.90404297 -40.17578125 7.95703125 C-40.11777344 6.98121094 -40.05976563 6.00539062 -40 5 C-35.15672914 2.2116816 -31.07677159 1.32548305 -25.625 0.8125 C-24.84785645 0.73209473 -24.07071289 0.65168945 -23.27001953 0.56884766 C-15.50996597 -0.16833385 -7.78584082 -0.19093343 0 0 Z " fill="#9FD5F6" transform="translate(201,138)"/>
<path d="M0 0 C0.495 0.268125 0.99 0.53625 1.5 0.8125 C7.76041078 3.78619512 13.88486613 5.57166066 20.66796875 6.796875 C21.89990211 7.02835487 21.89990211 7.02835487 23.15672302 7.26451111 C24.91836461 7.59457968 26.68061885 7.92139242 28.44342041 8.24520874 C31.22535801 8.75696423 34.00515622 9.27919448 36.78466797 9.80395508 C45.21909863 11.39195235 53.65846144 12.94792791 62.11024475 14.44094849 C65.4843308 15.03865559 68.85620213 15.64833548 72.22793579 16.25915527 C74.57331873 16.67826479 76.92146652 17.07808738 79.27026367 17.47753906 C87.69763011 18.96810516 94.76812957 20.58298523 100.875 26.95703125 C103.87029355 31.89718555 104.51513729 35.23046232 104 41 C103.34 41 102.68 41 102 41 C101.51891725 39.58398286 101.04021859 38.16715563 100.5625 36.75 C100.29566406 35.96109375 100.02882813 35.1721875 99.75390625 34.359375 C99.08045292 32.25178012 98.50849405 30.15246027 98 28 C97.29875 27.87625 96.5975 27.7525 95.875 27.625 C93 27 93 27 90.38671875 26.0234375 C85.50025553 24.54679002 80.61259696 24.23584528 75.54492188 23.7890625 C71.31300473 23.37757684 67.92626592 22.72110287 64 21 C62.19630049 20.62193198 60.38257193 20.28914618 58.5625 20 C55.61649045 19.53064997 52.97186229 18.99011899 50.15234375 18 C46.46423687 16.83004292 42.829776 16.38873666 39 16 C34.08058338 15.50066072 29.68395621 14.6133627 25 13 C23.32438301 12.58852375 21.64410613 12.19581154 19.9609375 11.81640625 C19.05085938 11.61080078 18.14078125 11.40519531 17.203125 11.19335938 C15.31108854 10.77130981 13.4178359 10.35467738 11.5234375 9.94335938 C10.1621875 9.63301758 10.1621875 9.63301758 8.7734375 9.31640625 C7.95278809 9.13537354 7.13213867 8.95434082 6.28662109 8.76782227 C3.6916527 7.89646036 2.00875053 6.85482438 0 5 C-0.25 2.3125 -0.25 2.3125 0 0 Z " fill="#A489E1" transform="translate(198,212)"/>
<path d="M0 0 C0.33 0 0.66 0 1 0 C1 1.65 1 3.3 1 5 C1.66 5 2.32 5 3 5 C5.02377711 6.77361963 5.90182673 8.29010458 6.271698 10.96466064 C6.37859096 13.49350981 6.38883313 16.00799088 6.37109375 18.5390625 C6.38537368 20.4895873 6.40020623 22.44010811 6.41552734 24.390625 C6.41848816 25.40962891 6.42144897 26.42863281 6.42449951 27.47851562 C6.49964561 45.66598842 7.23660942 63.15159302 11 81 C11.15291504 81.75055664 11.30583008 82.50111328 11.46337891 83.27441406 C12.06507196 86.21678166 12.69300394 89.14818419 13.38671875 92.0703125 C14.87663963 99.18776895 15.18217887 106.12761652 15.1875 113.375 C15.19974609 114.27605469 15.21199219 115.17710937 15.22460938 116.10546875 C15.22750977 117.39517578 15.22750977 117.39517578 15.23046875 118.7109375 C15.23457764 119.48743652 15.23868652 120.26393555 15.24291992 121.06396484 C15 123 15 123 13 125 C10.84958555 115.37089103 9.02864636 105.73761498 7.4375 96 C7.22931641 94.74960937 7.02113281 93.49921875 6.80664062 92.2109375 C5.42170146 83.82315547 4.1235608 75.42702758 3 67 C2.88438721 66.14092041 2.76877441 65.28184082 2.6496582 64.39672852 C1.80482925 57.24014375 2.00936952 50.13166644 2.125 42.9375 C2.25603142 29.79529323 1.17333931 17.04311555 -0.83813477 4.04589844 C-1 2 -1 2 0 0 Z " fill="#8965DA" transform="translate(357,284)"/>
<path d="M0 0 C1.71875 1.37890625 1.71875 1.37890625 3 3 C3 4.32 3 5.64 3 7 C1.02 6.67 -0.96 6.34 -3 6 C-3 5.34 -3 4.68 -3 4 C-4.32 4.33 -5.64 4.66 -7 5 C-7 4.34 -7 3.68 -7 3 C-7.556875 3.185625 -8.11375 3.37125 -8.6875 3.5625 C-11.45335559 4.08576998 -13.2355533 3.55288934 -16 3 C-21.65415367 2.72641192 -27.186511 3.09146323 -32.8125 3.6875 C-34.07707031 3.81511719 -35.34164062 3.94273438 -36.64453125 4.07421875 C-40.6793881 5.18744468 -41.7029243 6.5998996 -44 10 C-44.66 10.33 -45.32 10.66 -46 11 C-46.66 10.34 -47.32 9.68 -48 9 C-48.86625 8.5875 -49.7325 8.175 -50.625 7.75 C-53 6 -53 6 -53.5 3 C-52.94295614 -0.34226317 -52.54448366 -0.93367434 -50 -3 C-36.43041677 -9.45285465 -12.55103834 -8.31802305 0 0 Z " fill="#D6EFFD" transform="translate(280,22)"/>
<path d="M0 0 C1.99954746 -0.04254356 4.00041636 -0.04080783 6 0 C7.82658507 1.82658507 7.41594372 4.80153143 7.62109375 7.28515625 C8.02332936 10.16715368 8.74666257 12.90738389 9.47192383 15.72192383 C10.47313982 20.04108537 11.04485803 24.42010244 11.625 28.8125 C11.82283081 30.30535522 11.82283081 30.30535522 12.0246582 31.82836914 C13.18324141 41.24607039 13.2984086 50.52828986 13 60 C11.35 59.67 9.7 59.34 8 59 C6.50754639 54.16895876 5.57651877 49.5985833 5 44.5546875 C4.91878906 43.86295441 4.83757812 43.17122131 4.75390625 42.45852661 C4.49713819 40.26461022 4.24807862 38.06991439 4 35.875 C3.66990836 32.99701351 3.33605851 30.119483 3 27.2421875 C2.9189502 26.54188416 2.83790039 25.84158081 2.75439453 25.12005615 C2.11081944 19.66575723 1.28870859 14.25124826 0.3671875 8.83642578 C-0.01804286 5.86062368 -0.06217689 2.99725923 0 0 Z " fill="#482E85" transform="translate(286,270)"/>
<path d="M0 0 C0.28527062 3.37887205 0.4086033 6.62766078 0 10 C-5.72566582 16.10737687 -19.53644501 15.57232507 -27.375 16.125 C-28.56673828 16.20919189 -29.75847656 16.29338379 -30.98632812 16.38012695 C-53.5703647 17.80534716 -76.43131775 17.58774649 -99 16 C-99 15.67 -99 15.34 -99 15 C-85.98837967 14.31737558 -73.02977281 13.85414433 -60 14 C-59.34 14 -58.68 14 -58 14 C-58 13.67 -58 13.34 -58 13 C-56.48031616 12.88724731 -56.48031616 12.88724731 -54.92993164 12.7722168 C-51.13259865 12.48739761 -47.33658532 12.18740058 -43.54077148 11.88305664 C-41.90502019 11.75398199 -40.26894844 11.62889853 -38.63256836 11.50805664 C-26.04664402 10.5873163 -26.04664402 10.5873163 -14 7 C-13.01 6.67 -12.02 6.34 -11 6 C-10.71125 5.175 -10.4225 4.35 -10.125 3.5 C-9.568125 2.2625 -9.568125 2.2625 -9 1 C-5.85691208 -0.07526692 -3.35575631 0 0 0 Z " fill="#4298BC" transform="translate(370,159)"/>
<path d="M0 0 C4.62 0 9.24 0 14 0 C14 0.33 14 0.66 14 1 C11.69 1.33 9.38 1.66 7 2 C6.5514121 10.10781089 7.0330076 16.39149573 12.3125 22.8125 C16.93362503 26.57388084 21.09338475 28.29683152 27 29 C26 31 26 31 24 32.125 C18.70900199 33.66820775 13.94098355 33.70920553 8.75 31.8125 C3.61327273 28.42692975 -0.73113738 24.16786124 -2.5625 18.15234375 C-3.04618813 15.77277092 -3.20461763 13.55295693 -3.25 11.125 C-3.27578125 10.30257812 -3.3015625 9.48015625 -3.328125 8.6328125 C-3 6 -3 6 0 0 Z " fill="#E1E1E1" transform="translate(239,179)"/>
<path d="M0 0 C4.67119222 -0.17966124 8.82614792 0.09542028 13.41723633 0.99121094 C20.32831087 2.17639859 27.07573563 2.28851698 34.07421875 2.265625 C35.40965342 2.26697948 36.74508761 2.26892643 38.08052063 2.27142334 C40.86989062 2.27435117 43.65913152 2.27016223 46.44848633 2.26074219 C49.94192467 2.24949183 53.43505315 2.25600434 56.92848015 2.26764679 C74.03172258 2.31559268 90.97196948 1.71628901 108 0 C108.495 0.99 108.495 0.99 109 2 C102.44820166 3.59008437 96.07176201 4.56221498 89.35546875 5.109375 C88.32592575 5.19346619 87.29638275 5.27755737 86.23564148 5.36419678 C73.92696411 6.27447435 61.61749904 6.30037751 49.28100586 6.26074219 C45.30632381 6.24998328 41.33209071 6.26072873 37.35742188 6.2734375 C22.7859829 6.28022201 8.4693572 5.75823066 -6 4 C-6 3.67 -6 3.34 -6 3 C-2.535 2.505 -2.535 2.505 1 2 C0.67 1.34 0.34 0.68 0 0 Z " fill="#95D0F3" transform="translate(250,159)"/>
<path d="M0 0 C2.64 0 5.28 0 8 0 C8.14695312 1.19496094 8.14695312 1.19496094 8.296875 2.4140625 C9.18441008 8.70331973 10.05879485 13.00780681 14 18 C14 18.66 14 19.32 14 20 C18.95188142 22.56764222 23.44686418 24.22514384 29 25 C28 27 28 27 26 28.125 C20.79728666 29.64245806 16.04291032 29.6537313 10.875 28 C5.22858886 24.07206181 0.24972187 18.94289927 -1 12 C-1.50139276 3.00278552 -1.50139276 3.00278552 0 0 Z " fill="#E3E3E3" transform="translate(284,183)"/>
<path d="M0 0 C0 0.33 0 0.66 0 1 C-6.435 1.495 -6.435 1.495 -13 2 C-9.04 2.33 -5.08 2.66 -1 3 C-1 3.99 -1 4.98 -1 6 C-4.14872046 7.85432729 -6.30770956 8.19895829 -9.9375 8.0625 C-17.16027896 7.92676993 -24.61907329 8.02857712 -31.6953125 9.59765625 C-34 10 -34 10 -37 9 C-37.99 9.33 -38.98 9.66 -40 10 C-40.969375 9.773125 -41.93875 9.54625 -42.9375 9.3125 C-43.948125 9.209375 -44.95875 9.10625 -46 9 C-48.39795381 10.81287195 -48.39795381 10.81287195 -50 13 C-50 9 -50 9 -48.578125 7.32421875 C-44.76235892 5.36430254 -40.98385363 5.1730391 -36.75 4.8125 C-35.90953125 4.73064453 -35.0690625 4.64878906 -34.203125 4.56445312 C-32.13649217 4.36483518 -30.06835752 4.18087489 -28 4 C-30.04159095 3.9727384 -32.08328963 3.95348655 -34.125 3.9375 C-35.83042969 3.92009766 -35.83042969 3.92009766 -37.5703125 3.90234375 C-40.81920938 3.9948522 -43.80535627 4.4383044 -47 5 C-49.67810075 5.11196073 -52.31732686 5.04625299 -55 5 C-55 4.67 -55 4.34 -55 4 C-37.01284831 0.57734361 -18.28465339 -0.4971658 0 0 Z " fill="#92C7E6" transform="translate(226,135)"/>
<path d="M0 0 C8.88393096 0.52913695 17.481823 1.2894367 26.01171875 3.93359375 C31.38387195 5.48949095 36.9238672 6.24150988 42.4375 7.125 C43.55060547 7.30675781 44.66371094 7.48851562 45.81054688 7.67578125 C48.53978519 8.12089308 51.26958252 8.56219003 54 9 C54 9.66 54 10.32 54 11 C55.36318359 11.05607422 55.36318359 11.05607422 56.75390625 11.11328125 C66.09121226 11.60169418 74.87507162 12.94203743 84 15 C84 15.66 84 16.32 84 17 C85.65 17 87.3 17 89 17 C89 17.66 89 18.32 89 19 C90.98 19.495 90.98 19.495 93 20 C93.18175781 20.95712891 93.18175781 20.95712891 93.3671875 21.93359375 C93.53476562 22.75988281 93.70234375 23.58617187 93.875 24.4375 C94.03742188 25.26121094 94.19984375 26.08492187 94.3671875 26.93359375 C94.68042969 27.95646484 94.68042969 27.95646484 95 29 C95.66 29.33 96.32 29.66 97 30 C96.01 32.31 95.02 34.62 94 37 C92.67770811 34.35541621 92.90322806 32.32238699 92.9375 29.375 C92.94652344 28.37210938 92.95554687 27.36921875 92.96484375 26.3359375 C92.97644531 25.56507813 92.98804688 24.79421875 93 24 C92.34 24 91.68 24 91 24 C91 23.34 91 22.68 91 22 C90.34 22 89.68 22 89 22 C89 21.34 89 20.68 89 20 C88.34 20 87.68 20 87 20 C87 19.34 87 18.68 87 18 C86.41992188 18.02320313 85.83984375 18.04640625 85.2421875 18.0703125 C80.31399006 18.18416525 76.67362243 17.69045918 72 16 C70.10662132 15.77148878 68.21284769 15.54526939 66.31640625 15.34375 C63.58428841 14.93830924 60.98325371 14.26625592 58.3125 13.5625 C50.65245002 11.57476551 42.90439672 10.49579641 35.0625 9.5 C32 9 32 9 28.875 7.9375 C26.10786133 6.87082475 26.10786133 6.87082475 23.5 7 C21 7 21 7 18.25 6.0625 C15.46141855 5.15084837 13.37796634 4.79428252 10.5 4.5625 C6.46557276 4.19387213 3.52249673 3.07736987 0 1 C0 0.67 0 0.34 0 0 Z " fill="#8762DC" transform="translate(205,224)"/>
<path d="M0 0 C11.55 0 23.1 0 35 0 C35.495 0.99 35.495 0.99 36 2 C34.35 2 32.7 2 31 2 C31.02320313 3.20398438 31.04640625 4.40796875 31.0703125 5.6484375 C31.08906863 7.22395215 31.10726899 8.79947348 31.125 10.375 C31.14175781 11.1690625 31.15851563 11.963125 31.17578125 12.78125 C31.19335473 14.85492015 31.10335168 16.92883241 31 19 C30.34 19.66 29.68 20.32 29 21 C24.44444444 20.44444444 24.44444444 20.44444444 23 19 C22.92669669 16.13530675 22.90782169 13.30106326 22.9375 10.4375 C22.958125 7.653125 22.97875 4.86875 23 2 C15.08 2 7.16 2 -1 2 C-0.67 1.34 -0.34 0.68 0 0 Z " fill="#404B70" transform="translate(285,181)"/>
<path d="M0 0 C20.11007399 -0.69745921 39.39484879 3.34445145 58 11 C58 11.99 58 12.98 58 14 C56.35 14 54.7 14 53 14 C53 13.34 53 12.68 53 12 C44.21436825 10.57319156 44.21436825 10.57319156 35.375 9.5625 C30.97502221 9.11846554 26.88429344 7.91683839 22.64453125 6.6953125 C19.09625327 5.76238269 15.64743283 5.37732064 12 5 C7.61196397 4.35784839 4.0216309 2.81367668 0 1 C0 0.67 0 0.34 0 0 Z M8 1 C12 2 12 2 12 2 Z " fill="#95CFF1" transform="translate(313,144)"/>
<path d="M0 0 C3.3 0 6.6 0 10 0 C9.01 0.495 9.01 0.495 8 1 C8.01047363 1.56509277 8.02094727 2.13018555 8.03173828 2.71240234 C8.07324788 5.26655653 8.0993096 7.82063982 8.125 10.375 C8.14175781 11.26445312 8.15851563 12.15390625 8.17578125 13.0703125 C8.18222656 13.92109375 8.18867188 14.771875 8.1953125 15.6484375 C8.20578613 16.43395996 8.21625977 17.21948242 8.22705078 18.02880859 C8 20 8 20 6 22 C1.44444444 21.44444444 1.44444444 21.44444444 0 20 C-0.08669432 18.5112814 -0.10703494 17.018555 -0.09765625 15.52734375 C-0.09443359 14.62822266 -0.09121094 13.72910156 -0.08789062 12.80273438 C-0.07951172 11.85720703 -0.07113281 10.91167969 -0.0625 9.9375 C-0.05798828 8.98810547 -0.05347656 8.03871094 -0.04882812 7.06054688 C-0.03700128 4.70700469 -0.01906521 2.35349468 0 0 Z " fill="#2E3C6F" transform="translate(263,180)"/>
<path d="M0 0 C0.70511719 0.44988281 1.41023437 0.89976562 2.13671875 1.36328125 C4.98514551 2.99150882 7.71972914 4.10689331 10.8125 5.1875 C11.78832031 5.53167969 12.76414063 5.87585938 13.76953125 6.23046875 C14.87361328 6.61138672 14.87361328 6.61138672 16 7 C15.01 7.33 14.02 7.66 13 8 C12.938125 9.27875 12.87625 10.5575 12.8125 11.875 C12.77769531 12.59429687 12.74289063 13.31359375 12.70703125 14.0546875 C12.80371094 14.69664062 12.90039062 15.33859375 13 16 C13.99 16.66 14.98 17.32 16 18 C14.26992849 17.91213297 12.54088335 17.80394326 10.8125 17.6875 C9.84957031 17.62949219 8.88664063 17.57148438 7.89453125 17.51171875 C4.49713705 16.9110998 2.59848605 16.2972123 0 14 C-0.48828125 10.64453125 -0.48828125 10.64453125 -0.3125 6.8125 C-0.24482422 4.90404297 -0.24482422 4.90404297 -0.17578125 2.95703125 C-0.11777344 1.98121094 -0.05976563 1.00539062 0 0 Z " fill="#8ECBED" transform="translate(161,143)"/>
<path d="M0 0 C-2.94251857 1.96167905 -3.76953598 2.27482176 -7.08984375 2.52734375 C-7.87423828 2.59759766 -8.65863281 2.66785156 -9.46679688 2.74023438 C-11.10974476 2.87141045 -12.75298032 2.99903346 -14.39648438 3.12304688 C-20.3007619 3.59100574 -20.3007619 3.59100574 -25 7 C-25 7.66 -25 8.32 -25 9 C-24.34 9.66 -23.68 10.32 -23 11 C-29.258654 11.5326514 -33.45108785 9.81849506 -39 7 C-39 6.01 -39 5.02 -39 4 C-34.67597264 1.97018045 -30.38848434 1.36470682 -25.6875 0.875 C-24.90584473 0.79008301 -24.12418945 0.70516602 -23.31884766 0.61767578 C-15.53787738 -0.16120483 -7.81005302 -0.19152719 0 0 Z " fill="#C7E7F9" transform="translate(201,138)"/>
<path d="M0 0 C0 0.33 0 0.66 0 1 C-2.31 1 -4.62 1 -7 1 C-7.185625 1.61875 -7.37125 2.2375 -7.5625 2.875 C-9.71757656 6.06076535 -12.34647638 6.0866191 -16 7 C-20.12180397 8.74384014 -22.62038722 10.16617941 -25 14 C-27 12.875 -27 12.875 -29 11 C-29.47350184 7.75313026 -29.64576592 5.89177198 -27.6875 3.1875 C-20.58116206 -1.81325633 -8.24689909 -0.12953245 0 0 Z " fill="#ECF8FE" transform="translate(256,17)"/>
<path d="M0 0 C21.12 0 42.24 0 64 0 C64 0.33 64 0.66 64 1 C59.38 1.33 54.76 1.66 50 2 C52.97 2.33 55.94 2.66 59 3 C59 3.33 59 3.66 59 4 C52.73 4 46.46 4 40 4 C40 3.67 40 3.34 40 3 C24.82 3 9.64 3 -6 3 C-6 2.67 -6 2.34 -6 2 C-4.02 1.67 -2.04 1.34 0 1 C0 0.67 0 0.34 0 0 Z " fill="#50A6CB" transform="translate(263,171)"/>
<path d="M0 0 C0.66 0.66 1.32 1.32 2 2 C3.32 1.34 4.64 0.68 6 0 C5.60124215 2.23243977 5.18021503 4.4609084 4.75 6.6875 C4.40195313 8.54955078 4.40195313 8.54955078 4.046875 10.44921875 C2.68045095 15.08384361 0.35483211 17.64516789 -3 21 C-3.38999191 13.40237976 -2.60758587 7.15533979 0 0 Z " fill="#D9F1FF" transform="translate(236,98)"/>
<path d="M0 0 C0 3.70255827 -1.12226303 5.74659028 -2.75 9.0625 C-3.26046875 10.12597656 -3.7709375 11.18945312 -4.296875 12.28515625 C-6.03338055 15.05320983 -6.97189452 15.94016308 -10 17 C-10 16.01 -10 15.02 -10 14 C-17.59 14 -25.18 14 -33 14 C-33 13.67 -33 13.34 -33 13 C-31.92516357 12.94054199 -31.92516357 12.94054199 -30.82861328 12.87988281 C-27.59255354 12.68974264 -24.35914325 12.47025947 -21.125 12.25 C-19.99707031 12.188125 -18.86914062 12.12625 -17.70703125 12.0625 C-16.63066406 11.98515625 -15.55429688 11.9078125 -14.4453125 11.828125 C-13.45031738 11.7652832 -12.45532227 11.70244141 -11.43017578 11.63769531 C-8.86328367 11.26046757 -8.86328367 11.26046757 -7.81591797 9.11230469 C-7.54666504 8.41524414 -7.27741211 7.71818359 -7 7 C-5.37446717 5.29319053 -3.70884005 3.62339805 -2 2 C-1.34 1.34 -0.68 0.68 0 0 Z " fill="#D3EFFE" transform="translate(235,124)"/>
<path d="M0 0 C0.33 0 0.66 0 1 0 C1 1.65 1 3.3 1 5 C1.66 5 2.32 5 3 5 C5.25445797 7.28188446 5.9581571 8.66885619 6.36328125 11.875 C6.34652344 12.90625 6.32976562 13.9375 6.3125 15 C6.30863281 16.03125 6.30476563 17.0625 6.30078125 18.125 C5.88256097 22.12253406 4.82097505 24.17902495 2 27 C1.46928969 22.87620737 0.95210526 18.75083081 0.4375 14.625 C0.28603516 13.449375 0.13457031 12.27375 -0.02148438 11.0625 C-0.16005859 9.94101562 -0.29863281 8.81953125 -0.44140625 7.6640625 C-0.57232666 6.62717285 -0.70324707 5.5902832 -0.83813477 4.52197266 C-1 2 -1 2 0 0 Z " fill="#8462D1" transform="translate(357,284)"/>
<path d="M0 0 C0 0.33 0 0.66 0 1 C5.61 1.33 11.22 1.66 17 2 C17 2.33 17 2.66 17 3 C-21.85203459 3.20638953 -21.85203459 3.20638953 -39 2 C-39 1.67 -39 1.34 -39 1 C-25.98922863 0.31742012 -13.02928914 -0.15552202 0 0 Z " fill="#317E9D" transform="translate(310,173)"/>
<path d="M0 0 C0.33 0 0.66 0 1 0 C1.63488981 14.00641226 2.17358814 27.9779359 2 42 C-2.93102034 34.6034695 -1.15585231 22.51364667 -1.125 13.875 C-1.12886719 12.75351562 -1.13273437 11.63203125 -1.13671875 10.4765625 C-1.13542969 9.40921875 -1.13414062 8.341875 -1.1328125 7.2421875 C-1.13168457 6.2816748 -1.13055664 5.32116211 -1.12939453 4.33154297 C-1 2 -1 2 0 0 Z " fill="#825ADA" transform="translate(360,314)"/>
<path d="M0 0 C0.99 0.33 1.98 0.66 3 1 C2.360625 1.2475 1.72125 1.495 1.0625 1.75 C-1.49019039 2.96621634 -1.49019039 2.96621634 -2 7 C4.435 6.505 4.435 6.505 11 6 C11.33 6.66 11.66 7.32 12 8 C7.40795038 10.63305597 3.17901607 10.65028005 -2 10 C-9.25443787 7.49112426 -9.25443787 7.49112426 -11 4 C-6.125 4.875 -6.125 4.875 -5 6 C-3.35 4.02 -1.7 2.04 0 0 Z " fill="#9CCDE7" transform="translate(240,26)"/>
<path d="M0 0 C-2 2 -2 2 -4.14453125 2.16015625 C-5.02496094 2.12792969 -5.90539062 2.09570312 -6.8125 2.0625 C-14.07710165 1.92850208 -21.57732627 2.01932017 -28.6953125 3.59765625 C-31 4 -31 4 -34 3 C-34.99 3.33 -35.98 3.66 -37 4 C-37.99 3.34 -38.98 2.68 -40 2 C-38.43953484 0.43953484 -36.8578547 0.78202989 -34.6875 0.68359375 C-33.33229248 0.6206311 -33.33229248 0.6206311 -31.94970703 0.55639648 C-30.97630371 0.51716064 -30.00290039 0.4779248 -29 0.4375 C-28.01499512 0.3950415 -27.02999023 0.35258301 -26.01513672 0.30883789 C-17.33999328 -0.03937292 -8.68036672 -0.1036118 0 0 Z " fill="#9DD4F5" transform="translate(223,141)"/>
<path d="M0 0 C0.66 0 1.32 0 2 0 C2.67753232 2.83111718 3.34218727 5.66429376 4 8.5 C4.28617187 9.68722656 4.28617187 9.68722656 4.578125 10.8984375 C5.76334941 16.06262957 6.19441282 20.70225061 6 26 C5.34 26.33 4.68 26.66 4 27 C3.32409812 23.62678224 2.66094482 20.25117758 2 16.875 C1.80921875 15.92367188 1.6184375 14.97234375 1.421875 13.9921875 C0.50243109 9.26361884 -0.2609763 4.84437265 0 0 Z " fill="#9070D8" transform="translate(364,357)"/>
<path d="M0 0 C2.97 0.33 5.94 0.66 9 1 C8.01 1.33 7.02 1.66 6 2 C5.938125 3.27875 5.87625 4.5575 5.8125 5.875 C5.77769531 6.59429687 5.74289063 7.31359375 5.70703125 8.0546875 C5.80371094 8.69664062 5.90039062 9.33859375 6 10 C6.99 10.66 7.98 11.32 9 12 C7.20759337 11.88610125 5.41605165 11.75852313 3.625 11.625 C2.12839844 11.52058594 2.12839844 11.52058594 0.6015625 11.4140625 C-2 11 -2 11 -4 9 C-2.35 9 -0.7 9 1 9 C0.67 6.03 0.34 3.06 0 0 Z " fill="#76BEE2" transform="translate(168,149)"/>
<path d="M0 0 C0.99 0.33 1.98 0.66 3 1 C4.74448199 6.23344596 4.67853621 11.87957435 3 17.125 C2.67 17.74375 2.34 18.3625 2 19 C1.34 19 0.68 19 0 19 C0 12.73 0 6.46 0 0 Z " fill="#F3F3F3" transform="translate(271,181)"/>
<path d="M0 0 C0.8559375 -0.020625 1.711875 -0.04125 2.59375 -0.0625 C8.66835666 -0.0993158 13.61963938 0.98349782 19.25 3.25 C19.25 3.58 19.25 3.91 19.25 4.25 C12.18391809 4.38794954 5.27639415 3.99805717 -1.75 3.25 C-1.75 2.92 -1.75 2.59 -1.75 2.25 C-6.04 2.25 -10.33 2.25 -14.75 2.25 C-14.75 1.92 -14.75 1.59 -14.75 1.25 C-9.85923573 -0.00300572 -5.01473667 0.029673 0 0 Z " fill="#C5E3F3" transform="translate(250.75,15.75)"/>
<path d="M0 0 C1.231394 2.46278801 1.07159196 4.2795055 1 7 C-7.57142857 6.14285714 -7.57142857 6.14285714 -11 4 C-11 3.01 -11 2.02 -11 1 C-7.27569643 0.30710631 -3.78916254 -0.11144596 0 0 Z " fill="#F0F9FE" transform="translate(173,141)"/>
<path d="M0 0 C3.875 1.75 3.875 1.75 5 4 C4.34 4 3.68 4 3 4 C3.70768358 6.95800528 3.70768358 6.95800528 5 10 C6.93330603 11.09166275 6.93330603 11.09166275 9 12 C11.11057699 14.93973224 12 16.34648137 12 20 C11.34 20 10.68 20 10 20 C10 19.34 10 18.68 10 18 C9.34 18 8.68 18 8 18 C6.6328125 16.390625 6.6328125 16.390625 5.125 14.25 C2.94268803 11.23327463 0.74643258 8.53516854 -2 6 C-0.68 4.68 0.64 3.36 2 2 C1.34 2 0.68 2 0 2 C0 1.34 0 0.68 0 0 Z " fill="#8964DC" transform="translate(336,251)"/>
<path d="M0 0 C7.62314474 -0.23576736 14.58569409 0.16282685 22 2 C22 2.99 22 3.98 22 5 C14.73702408 7.33214823 6.74470099 3.74784114 0 1 C0 0.67 0 0.34 0 0 Z M8 1 C12 2 12 2 12 2 Z " fill="#A8D9F8" transform="translate(313,144)"/>
<path d="M0 0 C2.08305834 6.96574709 1.95629452 15.34833732 -1 22 C-1.66 21.67 -2.32 21.34 -3 21 C-3.66 21.99 -4.32 22.98 -5 24 C-4.41640925 15.68383188 -2.26200586 7.98540674 0 0 Z " fill="#A4CFE4" transform="translate(231,111)"/>
<path d="M0 0 C0.8723412 2.99480917 1.10829766 5.63575911 1.0625 8.75 C1.05347656 9.54921875 1.04445312 10.3484375 1.03515625 11.171875 C1.01775391 12.07679687 1.01775391 12.07679687 1 13 C1.66 12.01 2.32 11.02 3 10 C3.66 10.33 4.32 10.66 5 11 C4.5359375 12.11375 4.5359375 12.11375 4.0625 13.25 C2.94970861 15.86075497 2.94970861 15.86075497 2.625 18.1875 C2 20 2 20 -0.0390625 21.11328125 C-1.00972656 21.55220703 -1.00972656 21.55220703 -2 22 C-2.26442904 14.40501039 -1.60881575 7.42640842 0 0 Z " fill="#D4EFFF" transform="translate(233,104)"/>
<path d="M0 0 C7.26 0 14.52 0 22 0 C22.33 0.66 22.66 1.32 23 2 C13.33456945 3.1922117 3.71824449 3.09622024 -6 3 C-6 2.67 -6 2.34 -6 2 C-4.02 1.67 -2.04 1.34 0 1 C0 0.67 0 0.34 0 0 Z " fill="#499EC3" transform="translate(263,171)"/>
<path d="M0 0 C2.1097676 3.1646514 2.25552605 3.97393773 2.265625 7.59765625 C2.26820313 8.48130859 2.27078125 9.36496094 2.2734375 10.27539062 C2.26570313 11.19513672 2.25796875 12.11488281 2.25 13.0625 C2.25773437 13.98611328 2.26546875 14.90972656 2.2734375 15.86132812 C2.27085937 16.74369141 2.26828125 17.62605469 2.265625 18.53515625 C2.26336914 19.343479 2.26111328 20.15180176 2.25878906 20.98461914 C2 23 2 23 0 25 C-2.15925795 16.9027827 -0.97711101 8.20075309 0 0 Z " fill="#8465CA" transform="translate(370,384)"/>
<path d="M0 0 C2.6855594 2.6855594 3.06049974 5.37621328 4 9 C1.33333333 11.66666667 -1.33333333 14.33333333 -4 17 C-3.35729017 11.0870696 -1.80996216 5.65755469 0 0 Z " fill="#BBDDEE" transform="translate(238,87)"/>
<path d="M0 0 C0.73605469 0.00451172 1.47210938 0.00902344 2.23046875 0.01367188 C4.02868158 0.02534858 5.82685197 0.04327989 7.625 0.0625 C1.60716984 4.07438677 -6.35369825 3.17394923 -13.375 3.0625 C-13.705 2.4025 -14.035 1.7425 -14.375 1.0625 C-9.51770355 0.08950844 -4.9249375 -0.05788805 0 0 Z " fill="#DBF1FE" transform="translate(193.375,137.9375)"/>
<path d="M0 0 C0 0.33 0 0.66 0 1 C-0.57967529 1.08040527 -1.15935059 1.16081055 -1.7565918 1.24365234 C-4.40119003 1.61423972 -7.04430672 1.9945265 -9.6875 2.375 C-11.05551758 2.56449219 -11.05551758 2.56449219 -12.45117188 2.7578125 C-16.8864311 3.40294111 -20.92236581 4.0255666 -25 6 C-25 5.01 -25 4.02 -25 3 C-17.48021522 -1.12916754 -8.33574825 -0.12694033 0 0 Z " fill="#F6FCFE" transform="translate(256,17)"/>
<path d="M0 0 C1.67542976 0.28604898 3.34385343 0.61781233 5 1 C5 1.66 5 2.32 5 3 C3.34151823 4.01351664 1.67334039 5.01120795 0 6 C-1.36984198 7.29579647 -2.7151049 8.61992749 -4 10 C-4 7.03 -4 4.06 -4 1 C-3.01 1 -2.02 1 -1 1 C-0.67 0.67 -0.34 0.34 0 0 Z " fill="#8965DA" transform="translate(189,210)"/>
<path d="M0 0 C0.66 0.33 1.32 0.66 2 1 C1.34 2.32 0.68 3.64 0 5 C0.639375 5.185625 1.27875 5.37125 1.9375 5.5625 C4 7 4 7 4.75 10.625 C4.87375 12.295625 4.87375 12.295625 5 14 C4.34 14 3.68 14 3 14 C3 12.02 3 10.04 3 8 C-0.71599191 7.79913557 -1.77208445 7.8480563 -5 10 C-4.56802365 5.2482602 -3.67230705 3.07999946 0 0 Z " fill="#9473E0" transform="translate(191,203)"/>
<path d="M0 0 C1.61648437 0.30550781 1.61648437 0.30550781 3.265625 0.6171875 C4.08546875 0.78476563 4.9053125 0.95234375 5.75 1.125 C5.42 1.785 5.09 2.445 4.75 3.125 C-5.80808656 3.4940205 -5.80808656 3.4940205 -10.25 1.125 C-6.60570204 -1.26325352 -4.1806564 -0.81795451 0 0 Z " fill="#A9DAF9" transform="translate(184.25,148.875)"/>
<path d="M0 0 C1.32 0 2.64 0 4 0 C4 0.66 4 1.32 4 2 C4.66 1.67 5.32 1.34 6 1 C9.4375 0.75 9.4375 0.75 13 1 C14.72265625 2.515625 14.72265625 2.515625 16 4 C13.89551062 3.85890014 11.7914123 3.71195825 9.6875 3.5625 C8.51574219 3.48128906 7.34398437 3.40007812 6.13671875 3.31640625 C3 3 3 3 0 2 C0 1.34 0 0.68 0 0 Z " fill="#A7D9F8" transform="translate(340,148)"/>
<path d="M0 0 C5.66442374 0.36504064 10.00703705 1.0554321 15 4 C15 4.99 15 5.98 15 7 C14.34 7 13.68 7 13 7 C13 6.34 13 5.68 13 5 C11.35 5 9.7 5 8 5 C8 4.34 8 3.68 8 3 C6.865625 2.87625 5.73125 2.7525 4.5625 2.625 C3.386875 2.41875 2.21125 2.2125 1 2 C0.67 1.34 0.34 0.68 0 0 Z " fill="#9B7CE2" transform="translate(281,236)"/>
<path d="M0 0 C1.96713413 2.95070119 2.65358161 4.53581611 3 8 C2.01 9.485 2.01 9.485 1 11 C0.34 11 -0.32 11 -1 11 C-2.23076923 4.6 -2.23076923 4.6 -1.0625 1.5625 C-0.711875 1.046875 -0.36125 0.53125 0 0 Z " fill="#E4F5FE" transform="translate(241,82)"/>
<path d="M0 0 C0 3.3 0 6.6 0 10 C-0.66 10 -1.32 10 -2 10 C-2 7.36 -2 4.72 -2 2 C-4.31 2 -6.62 2 -9 2 C-9 1.67 -9 1.34 -9 1 C-5.846632 0.29925156 -3.27275026 0 0 0 Z " fill="#4CA1C6" transform="translate(370,159)"/>
<path d="M0 0 C0 0.33 0 0.66 0 1 C-0.90492188 1.14695313 -0.90492188 1.14695313 -1.828125 1.296875 C-6.70578282 2.20946904 -9.83823388 2.87595723 -13 7 C-13 3 -13 3 -11.5625 1.25 C-7.7641917 -0.60283332 -4.15339755 -0.23961909 0 0 Z " fill="#B8E1FD" transform="translate(189,141)"/>
<path d="M0 0 C-1.44626119 3.81287042 -3.30194812 5.32707177 -7 7 C-9.3125 6.6875 -9.3125 6.6875 -11 6 C-10.236875 5.566875 -9.47375 5.13375 -8.6875 4.6875 C-6.03619492 3.17334484 -6.03619492 3.17334484 -4.375 1.3125 C-3 0 -3 0 0 0 Z " fill="#4E3090" transform="translate(302,261)"/>
<path d="M0 0 C0.66 0.66 1.32 1.32 2 2 C1.95875 2.78375 1.9175 3.5675 1.875 4.375 C1.7377218 7.177705 1.7377218 7.177705 4 9.3125 C4.66 9.869375 5.32 10.42625 6 11 C3 12 3 12 0.75 11.125 C-1 9 -1 9 -1.03125 6.79296875 C-0.7718296 4.50502498 -0.43599695 2.26054938 0 0 Z " fill="#8F6FDA" transform="translate(197,210)"/>
<path d="M0 0 C2.33294775 -0.04241723 4.66702567 -0.04092937 7 0 C8 1 8 1 8.09765625 3.50390625 C8.08605469 4.51324219 8.07445312 5.52257812 8.0625 6.5625 C8.05347656 7.57441406 8.04445313 8.58632813 8.03515625 9.62890625 C8.02355469 10.41136719 8.01195312 11.19382812 8 12 C7.67 12 7.34 12 7 12 C6.67 9.03 6.34 6.06 6 3 C3.03 2.505 3.03 2.505 0 2 C0 1.34 0 0.68 0 0 Z " fill="#5737A0" transform="translate(286,268)"/>
<path d="M0 0 C1.34972358 4.8374093 1.89326362 9.76684095 0 14.5 C-0.33 14.995 -0.66 15.49 -1 16 C-2.03038433 12.0585998 -1.87693282 9.16384848 -1.0625 5.1875 C-0.86785156 4.21167969 -0.67320312 3.23585938 -0.47265625 2.23046875 C-0.31667969 1.49441406 -0.16070312 0.75835937 0 0 Z " fill="#C6E3F2" transform="translate(233,104)"/>
<path d="M0 0 C0.33 0 0.66 0 1 0 C1.16682272 4.92127034 1.24828052 8.50343896 -1 13 C-1.66 13 -2.32 13 -3 13 C-2.68991116 11.39536551 -2.37683713 9.79130769 -2.0625 8.1875 C-1.88847656 7.29417969 -1.71445313 6.40085937 -1.53515625 5.48046875 C-1 3 -1 3 0 0 Z " fill="#F2FAFF" transform="translate(236,98)"/>
<path d="M0 0 C1.98 0 3.96 0 6 0 C5.01 0.33 4.02 0.66 3 1 C2.67 3.64 2.34 6.28 2 9 C1.34 9 0.68 9 0 9 C0 6.03 0 3.06 0 0 Z " fill="#6DBBE1" transform="translate(171,150)"/>
<path d="M0 0 C0.33 0 0.66 0 1 0 C2.36442308 7.44230769 2.36442308 7.44230769 0.51953125 10.265625 C0.01808594 10.83796875 -0.48335938 11.4103125 -1 12 C-1.02698189 10.37509046 -1.04638757 8.75005367 -1.0625 7.125 C-1.07410156 6.22007812 -1.08570313 5.31515625 -1.09765625 4.3828125 C-1 2 -1 2 0 0 Z " fill="#7B58CA" transform="translate(369,404)"/>
<path d="M0 0 C0.33 0 0.66 0 1 0 C1.33 3.3 1.66 6.6 2 10 C1.34 10 0.68 10 0 10 C-0.33 10.66 -0.66 11.32 -1 12 C-1.02712066 10.56260487 -1.04645067 9.12506137 -1.0625 7.6875 C-1.07410156 6.88699219 -1.08570313 6.08648437 -1.09765625 5.26171875 C-1 3 -1 3 0 0 Z " fill="#8668C9" transform="translate(364,347)"/>
<path d="M0 0 C0.66 0.33 1.32 0.66 2 1 C1.67 3.31 1.34 5.62 1 8 C0.01 8.33 -0.98 8.66 -2 9 C-1.51421457 5.87709365 -1.0013988 3.00419641 0 0 Z " fill="#BADCEE" transform="translate(245,66)"/>
<path d="M0 0 C0.66 0.33 1.32 0.66 2 1 C0.68 1.33 -0.64 1.66 -2 2 C-2 2.99 -2 3.98 -2 5 C-2.99 5.495 -2.99 5.495 -4 6 C-5.13350534 8.01669827 -5.13350534 8.01669827 -6 10 C-6.36627907 4.50581395 -6.36627907 4.50581395 -4.6875 2.1875 C-3 1 -3 1 0 0 Z " fill="#9BCCE4" transform="translate(233,18)"/>
<path d="M0 0 C3.875 1.75 3.875 1.75 5 4 C4.34 4 3.68 4 3 4 C3 5.32 3 6.64 3 8 C2.01 7.67 1.02 7.34 0 7 C0.66 5.35 1.32 3.7 2 2 C1.34 2 0.68 2 0 2 C0 1.34 0 0.68 0 0 Z " fill="#8E6FD4" transform="translate(336,251)"/>
<path d="M0 0 C3.3 0.33 6.6 0.66 10 1 C8 3 8 3 6.0546875 3.1953125 C4.03645833 3.13020833 2.01822917 3.06510417 0 3 C0 2.01 0 1.02 0 0 Z " fill="#88C4E5" transform="translate(332,145)"/>
<path d="M0 0 C1.04973814 4.19895255 0.72795155 6.79405774 0 11 C-0.99 11 -1.98 11 -3 11 C-2.01 7.37 -1.02 3.74 0 0 Z " fill="#A9D4EA" transform="translate(249,54)"/>
<path d="M0 0 C1.00000429 4.00001715 0.80688405 6.05523353 0 10 C-0.99 10 -1.98 10 -3 10 C-2.01 6.7 -1.02 3.4 0 0 Z " fill="#AED6EB" transform="translate(253,44)"/>
<path d="M0 0 C1.98 0 3.96 0 6 0 C5.01 0.33 4.02 0.66 3 1 C3 2.98 3 4.96 3 7 C0 3.375 0 3.375 0 0 Z " fill="#7DC4EA" transform="translate(168,149)"/>
<path d="M0 0 C2.31 0 4.62 0 7 0 C7 0.99 7 1.98 7 3 C4.36 2.67 1.72 2.34 -1 2 C-0.67 1.34 -0.34 0.68 0 0 Z " fill="#A2D6F6" transform="translate(356,152)"/>
<path d="M0 0 C2.97 0.99 5.94 1.98 9 3 C9 3.33 9 3.66 9 4 C1.25 3.25 1.25 3.25 -1 1 C-0.67 0.67 -0.34 0.34 0 0 Z " fill="#4E3093" transform="translate(333,426)"/>
<path d="M0 0 C0.66 0.33 1.32 0.66 2 1 C0.54744301 4.82946843 -1.42895561 6.12050295 -5 8 C-3.8141763 4.62496331 -2.72426311 2.35277269 0 0 Z " fill="#957CCC" transform="translate(191,203)"/>
</svg>
